<svg width="200" height="54" viewBox="0 0 200 54" fill="none" xmlns="http://www.w3.org/2000/svg">
  <!-- Background -->
  <rect stroke="#d8d8d8" stroke-width="1" fill="#ffffff" x="0.5" y="0.5" width="199" height="53" rx="8"></rect>

  <!-- Icon -->
  <svg x="8" y="8" width="38" height="38" viewBox="0 -960 960 960" fill="#6A3DE8">
    <path d="M468-240q-96-5-162-74t-66-166q0-100 70-170t170-70q97 0 166 66t74 162l-84-25q-13-54-56-88.5T480-640q-66 0-113 47t-47 113q0 57 34.5 100t88.5 56l25 84Zm48 158q-9 2-18 2h-18q-83 0-156-31.5T197-197q-54-54-85.5-127T80-480q0-83 31.5-156T197-763q54-54 127-85.5T480-880q83 0 156 31.5T763-763q54 54 85.5 127T880-480v18q0 9-2 18l-78-24v-12q0-134-93-227t-227-93q-134 0-227 93t-93 227q0 134 93 227t227 93h12l24 78Zm305 22L650-231 600-80 480-480l400 120-151 50 171 171-79 79Z"/>
  </svg>
  
  <text font-family="Helvetica-Bold, Helvetica, Arial, sans-serif" font-size="12" font-weight="bold" fill="#888">
    <tspan x="50" y="20">FEATURED ON</tspan>
  </text>
  <text font-family="Helvetica-Bold, Helvetica, Arial, sans-serif" font-size="20" font-weight="bold" fill="#111827">
    <tspan x="50" y="40">Aihuntlist.com</tspan>
  </text>
</svg>
 